<?xml version="1.0" encoding="UTF-8"?>
<svg width="24px" height="24px" viewBox="0 0 24 24" version="1.1" xmlns="http://www.w3.org/2000/svg">
    <g stroke="none" stroke-width="1" fill="none" fill-rule="evenodd">
        <path d="M12,9 C14.209139,9 16,10.790861 16,13 C16,15.209139 14.209139,17 12,17 C9.790861,17 8,15.209139 8,13 C8,10.790861 9.790861,9 12,9 Z M12,10.5 C10.6192881,10.5 9.5,11.6192881 9.5,13 C9.5,14.3807119 10.6192881,15.5 12,15.5 C13.3807119,15.5 14.5,14.3807119 14.5,13 C14.5,11.6192881 13.3807119,10.5 12,10.5 Z" fill="#000000" fill-rule="nonzero"/>
        <path d="M9,2 L7.17071429,4 L4,4 C2.8954305,4 2,4.8954305 2,6 L2,18 C2,19.1045695 2.8954305,20 4,20 L20,20 C21.1045695,20 22,19.1045695 22,18 L22,6 C22,4.8954305 21.1045695,4 20,4 L16.8292857,4 L15,2 L9,2 Z M9.84928571,3.5 L14.1507143,3.5 L15.9800286,5.5 L20,5.5 C20.2761424,5.5 20.5,5.72385763 20.5,6 L20.5,18 C20.5,18.2761424 20.2761424,18.5 20,18.5 L4,18.5 C3.72385763,18.5 3.5,18.2761424 3.5,18 L3.5,6 C3.5,5.72385763 3.72385763,5.5 4,5.5 L8.01997143,5.5 L9.84928571,3.5 Z" fill="#000000" fill-rule="nonzero"/>
    </g>
</svg>